#
#
#

mtllib car.mtl


#
# Car_06 메시
#
g Car_06 메시


#
# Car_06 메시_CAR_08
#
usemtl Car_06 메시_CAR_08

v 1.409100 0.283800 2.596700
v 1.409100 0.934000 2.596700
v -1.156700 0.934000 2.596700
v -1.156700 0.283800 2.596700
v 1.409100 0.283800 -1.273000
v 1.409100 0.283800 -2.790300
v 1.409100 0.838600 -2.940400
v 1.409100 1.112200 -1.273000
v -1.156700 0.283800 -2.790300
v -1.156700 0.838600 -2.940400
v -1.156700 0.283800 1.442600
v -1.156700 1.112200 1.442600
v 1.409100 1.112200 1.442600
v -1.156700 0.283800 -1.273000
v 1.409100 0.283800 1.442600
v -1.156700 1.112200 -1.273000
v 1.409100 2.092700 1.295800
v 1.409100 2.092700 -0.847000
v -1.156700 2.092700 -0.847000
v -1.156700 2.092700 1.295800
v 1.272700 0.496400 -2.144300
v 1.272700 0.373100 -2.167300
v 1.272700 0.373100 -1.786100
v 1.512800 0.496400 -2.144300
v 1.512800 0.373100 -2.167300
v 1.512800 0.373100 -1.786100
v 1.272700 0.604700 -2.078100
v 1.512800 0.604700 -2.078100
v 1.272700 0.685100 -1.976700
v 1.512800 0.685100 -1.976700
v 1.272700 0.727900 -1.852300
v 1.512800 0.727900 -1.852300
v 1.272700 0.727900 -1.719900
v 1.512800 0.727900 -1.719900
v 1.272700 0.685100 -1.595500
v 1.512800 0.685100 -1.595500
v 1.272700 0.604700 -1.494100
v 1.512800 0.604700 -1.494100
v 1.272700 0.496400 -1.427900
v 1.512800 0.496400 -1.427900
v 1.272700 0.373100 -1.404900
v 1.512800 0.373100 -1.404900
v 1.272700 0.249900 -1.427900
v 1.512800 0.249900 -1.427900
v 1.272700 0.141600 -1.494100
v 1.512800 0.141600 -1.494100
v 1.272700 0.061200 -1.595500
v 1.512800 0.061200 -1.595500
v 1.272700 0.018400 -1.719900
v 1.512800 0.018400 -1.719900
v 1.272700 0.018400 -1.852300
v 1.512800 0.018400 -1.852300
v 1.272700 0.061200 -1.976700
v 1.512800 0.061200 -1.976700
v 1.272700 0.141600 -2.078100
v 1.512800 0.141600 -2.078100
v 1.272700 0.249900 -2.144300
v 1.512800 0.249900 -2.144300
v -1.297300 0.496400 -2.144300
v -1.297300 0.373100 -2.167300
v -1.297300 0.373100 -1.786100
v -1.057200 0.496400 -2.144300
v -1.057200 0.373100 -2.167300
v -1.057200 0.373100 -1.786100
v -1.297300 0.604700 -2.078100
v -1.057200 0.604700 -2.078100
v -1.297300 0.685100 -1.976700
v -1.057200 0.685100 -1.976700
v -1.297300 0.727900 -1.852300
v -1.057200 0.727900 -1.852300
v -1.297300 0.727900 -1.719900
v -1.057200 0.727900 -1.719900
v -1.297300 0.685100 -1.595500
v -1.057200 0.685100 -1.595500
v -1.297300 0.604700 -1.494100
v -1.057200 0.604700 -1.494100
v -1.297300 0.496400 -1.427900
v -1.057200 0.496400 -1.427900
v -1.297300 0.373100 -1.404900
v -1.057200 0.373100 -1.404900
v -1.297300 0.249900 -1.427900
v -1.057200 0.249900 -1.427900
v -1.297300 0.141600 -1.494100
v -1.057200 0.141600 -1.494100
v -1.297300 0.061200 -1.595500
v -1.057200 0.061200 -1.595500
v -1.297300 0.018400 -1.719900
v -1.057200 0.018400 -1.719900
v -1.297300 0.018400 -1.852300
v -1.057200 0.018400 -1.852300
v -1.297300 0.061200 -1.976700
v -1.057200 0.061200 -1.976700
v -1.297300 0.141600 -2.078100
v -1.057200 0.141600 -2.078100
v -1.297300 0.249900 -2.144300
v -1.057200 0.249900 -2.144300
v 1.312000 0.477900 1.004400
v 1.312000 0.354700 0.981400
v 1.312000 0.354700 1.362600
v 1.552100 0.477900 1.004400
v 1.552100 0.354700 0.981400
v 1.552100 0.354700 1.362600
v 1.312000 0.586200 1.070600
v 1.552100 0.586200 1.070600
v 1.312000 0.666700 1.172000
v 1.552100 0.666700 1.172000
v 1.312000 0.709400 1.296400
v 1.552100 0.709400 1.296400
v 1.312000 0.709400 1.428800
v 1.552100 0.709400 1.428800
v 1.312000 0.666700 1.553200
v 1.552100 0.666700 1.553200
v 1.312000 0.586200 1.654600
v 1.552100 0.586200 1.654600
v 1.312000 0.477900 1.720800
v 1.552100 0.477900 1.720800
v 1.312000 0.354700 1.743800
v 1.552100 0.354700 1.743800
v 1.312000 0.231500 1.720800
v 1.552100 0.231500 1.720800
v 1.312000 0.123100 1.654600
v 1.552100 0.123100 1.654600
v 1.312000 0.042700 1.553200
v 1.552100 0.042700 1.553200
v 1.312000 -0.000100 1.428800
v 1.552100 -0.000100 1.428800
v 1.312000 -0.000100 1.296400
v 1.552100 -0.000100 1.296400
v 1.312000 0.042700 1.172000
v 1.552100 0.042700 1.172000
v 1.312000 0.123100 1.070600
v 1.552100 0.123100 1.070600
v 1.312000 0.231500 1.004400
v 1.552100 0.231500 1.004400
v -1.258000 0.477900 1.004400
v -1.258000 0.354700 0.981400
v -1.258000 0.354700 1.362600
v -1.017900 0.477900 1.004400
v -1.017900 0.354700 0.981400
v -1.017900 0.354700 1.362600
v -1.258000 0.586200 1.070600
v -1.017900 0.586200 1.070600
v -1.258000 0.666700 1.172000
v -1.017900 0.666700 1.172000
v -1.258000 0.709400 1.296400
v -1.017900 0.709400 1.296400
v -1.258000 0.709400 1.428800
v -1.017900 0.709400 1.428800
v -1.258000 0.666700 1.553200
v -1.017900 0.666700 1.553200
v -1.258000 0.586200 1.654600
v -1.017900 0.586200 1.654600
v -1.258000 0.477900 1.720800
v -1.017900 0.477900 1.720800
v -1.258000 0.354700 1.743800
v -1.017900 0.354700 1.743800
v -1.258000 0.231500 1.720800
v -1.017900 0.231500 1.720800
v -1.258000 0.123100 1.654600
v -1.017900 0.123100 1.654600
v -1.258000 0.042700 1.553200
v -1.017900 0.042700 1.553200
v -1.258000 -0.000100 1.428800
v -1.017900 -0.000100 1.428800
v -1.258000 -0.000100 1.296400
v -1.017900 -0.000100 1.296400
v -1.258000 0.042700 1.172000
v -1.017900 0.042700 1.172000
v -1.258000 0.123100 1.070600
v -1.017900 0.123100 1.070600
v -1.258000 0.231500 1.004400
v -1.017900 0.231500 1.004400
vn 0.000000 -0.000000 1.000000
vn 1.000000 0.000000 -0.000000
vn -0.000000 -0.261196 -0.965286
vn -1.000000 0.000000 0.000000
vn 0.000000 0.988273 0.152696
vn 0.000000 -1.000000 -0.000000
vn -0.000000 0.986807 -0.161901
vn 0.000000 1.000000 0.000000
vn 0.000000 0.147998 0.988988
vn -0.000000 0.398488 -0.917173
vn -0.000000 0.183407 -0.983037
vn -0.000000 0.521288 -0.853381
vn -0.000000 0.783545 -0.621335
vn -0.000000 0.945610 -0.325303
vn 0.000000 0.945610 0.325303
vn 0.000000 0.783545 0.621335
vn 0.000000 0.521288 0.853381
vn 0.000000 0.183407 0.983037
vn 0.000000 -0.183407 0.983037
vn 0.000000 -0.521288 0.853381
vn 0.000000 -0.783545 0.621335
vn 0.000000 -0.945610 0.325303
vn -0.000000 -0.945610 -0.325303
vn -0.000000 -0.783545 -0.621335
vn -0.000000 -0.521288 -0.853381
vn -0.000000 -0.183407 -0.983037
vt 0.990800 0.924500
vt 0.990800 0.992200
vt 0.675900 0.992200
vt 0.675900 0.924500
vt 0.484100 0.211800
vt 0.670300 0.211800
vt 0.688800 0.269500
vt 0.484100 0.298000
vt 0.009200 0.431400
vt 0.009200 0.415700
vt 0.324100 0.415700
vt 0.324100 0.431400
vt 0.547100 0.007800
vt 0.688800 0.007800
vt 0.688800 0.075500
vt 0.547100 0.094100
vt 0.657400 0.415700
vt 0.657400 0.535900
vt 0.342600 0.535900
vt 0.342600 0.415700
vt 0.324100 0.589300
vt 0.009200 0.589300
vt 0.150900 0.298000
vt 0.150900 0.211800
vt 0.213900 0.094100
vt 0.009200 0.065600
vt 0.027600 0.007800
vt 0.213900 0.007800
vt 0.657400 0.818600
vt 0.657400 0.992200
vt 0.342600 0.992200
vt 0.342600 0.818600
vt 0.324100 0.872000
vt 0.009200 0.872000
vt 0.657400 0.551200
vt 0.657400 0.774200
vt 0.342600 0.774200
vt 0.342600 0.551200
vt 0.009200 0.279500
vt 0.009200 0.211800
vt 0.324100 0.992200
vt 0.009200 0.992200
vt 0.431800 0.400100
vt 0.168900 0.400100
vt 0.529100 0.196100
vt 0.266100 0.196100
vt 0.678700 0.616200
vt 0.675900 0.603400
vt 0.722700 0.603400
vt 0.865300 0.488700
vt 0.835800 0.488700
vt 0.835800 0.475900
vt 0.865300 0.475900
vt 0.878600 0.705700
vt 0.834700 0.692900
vt 0.881500 0.692900
vt 0.686800 0.627500
vt 0.865300 0.500000
vt 0.835800 0.500000
vt 0.870500 0.717000
vt 0.699300 0.635900
vt 0.740000 0.450700
vt 0.769500 0.450700
vt 0.769500 0.461300
vt 0.740000 0.461300
vt 0.858100 0.725400
vt 0.714500 0.640300
vt 0.740000 0.437800
vt 0.769500 0.437800
vt 0.842800 0.729800
vt 0.730800 0.640300
vt 0.740000 0.424000
vt 0.769500 0.424000
vt 0.826600 0.729800
vt 0.746100 0.635900
vt 0.740000 0.411000
vt 0.769500 0.411000
vt 0.811300 0.725400
vt 0.758500 0.627500
vt 0.740000 0.400500
vt 0.769500 0.400500
vt 0.798800 0.717000
vt 0.766600 0.616200
vt 0.835800 0.424900
vt 0.865300 0.424900
vt 0.865300 0.436200
vt 0.835800 0.436200
vt 0.790700 0.705700
vt 0.769500 0.603400
vt 0.835800 0.412000
vt 0.865300 0.412000
vt 0.787900 0.692900
vt 0.766600 0.590600
vt 0.835800 0.399200
vt 0.865300 0.399200
vt 0.790700 0.680100
vt 0.758500 0.579300
vt 0.835800 0.387900
vt 0.865300 0.387900
vt 0.798800 0.668800
vt 0.746100 0.570900
vt 0.740000 0.374300
vt 0.769500 0.374300
vt 0.769500 0.384800
vt 0.740000 0.384800
vt 0.811300 0.660400
vt 0.730800 0.566400
vt 0.740000 0.361300
vt 0.769500 0.361300
vt 0.826600 0.656000
vt 0.714500 0.566400
vt 0.740000 0.347600
vt 0.769500 0.347600
vt 0.842800 0.656000
vt 0.699300 0.570900
vt 0.740000 0.334600
vt 0.769500 0.334600
vt 0.858100 0.660400
vt 0.686800 0.579300
vt 0.740000 0.324000
vt 0.769500 0.324000
vt 0.870500 0.668800
vt 0.678700 0.590600
vt 0.865300 0.463100
vt 0.835800 0.463100
vt 0.835800 0.451800
vt 0.865300 0.451800
vt 0.878600 0.680100
vt 0.790700 0.795200
vt 0.787900 0.782400
vt 0.834700 0.782400
vt 0.913200 0.629000
vt 0.883700 0.629000
vt 0.883700 0.616200
vt 0.913200 0.616200
vt 0.878600 0.884700
vt 0.834700 0.871900
vt 0.881500 0.871900
vt 0.798800 0.806500
vt 0.913200 0.640300
vt 0.883700 0.640300
vt 0.870500 0.896000
vt 0.811300 0.814900
vt 0.835800 0.629800
vt 0.865300 0.629800
vt 0.865300 0.640300
vt 0.835800 0.640300
vt 0.858100 0.904400
vt 0.826600 0.819300
vt 0.835800 0.616800
vt 0.865300 0.616800
vt 0.842800 0.908800
vt 0.842800 0.819300
vt 0.835800 0.603000
vt 0.865300 0.603000
vt 0.826600 0.908800
vt 0.858100 0.814900
vt 0.835800 0.590100
vt 0.865300 0.590100
vt 0.811300 0.904400
vt 0.870500 0.806500
vt 0.835800 0.579500
vt 0.865300 0.579500
vt 0.798800 0.896000
vt 0.878600 0.795200
vt 0.883700 0.565200
vt 0.913200 0.565200
vt 0.913200 0.576500
vt 0.883700 0.576500
vt 0.790700 0.884700
vt 0.881500 0.782400
vt 0.883700 0.552300
vt 0.913200 0.552300
vt 0.787900 0.871900
vt 0.878600 0.769600
vt 0.883700 0.539500
vt 0.913200 0.539500
vt 0.790700 0.859100
vt 0.870500 0.758300
vt 0.883700 0.528200
vt 0.913200 0.528200
vt 0.798800 0.847800
vt 0.858100 0.749900
vt 0.787900 0.400400
vt 0.817400 0.400400
vt 0.817400 0.411000
vt 0.787900 0.411000
vt 0.811300 0.839400
vt 0.842800 0.745500
vt 0.787900 0.387500
vt 0.817400 0.387500
vt 0.826600 0.835000
vt 0.826600 0.745500
vt 0.787900 0.373700
vt 0.817400 0.373700
vt 0.842800 0.835000
vt 0.811300 0.749900
vt 0.787900 0.360700
vt 0.817400 0.360700
vt 0.858100 0.839400
vt 0.798800 0.758300
vt 0.787900 0.350200
vt 0.817400 0.350200
vt 0.870500 0.847800
vt 0.790700 0.769600
vt 0.913200 0.603400
vt 0.883700 0.603400
vt 0.883700 0.592100
vt 0.913200 0.592100
vt 0.878600 0.859100
vt 0.678700 0.526700
vt 0.675900 0.513900
vt 0.722700 0.513900
vt 0.865300 0.361000
vt 0.835800 0.361000
vt 0.835800 0.348200
vt 0.865300 0.348200
vt 0.766600 0.884700
vt 0.722700 0.871900
vt 0.769500 0.871900
vt 0.686800 0.538000
vt 0.865300 0.372300
vt 0.835800 0.372300
vt 0.758500 0.896000
vt 0.699300 0.546300
vt 0.787900 0.629800
vt 0.817400 0.629800
vt 0.817400 0.640300
vt 0.787900 0.640300
vt 0.746100 0.904400
vt 0.714500 0.550800
vt 0.787900 0.616800
vt 0.817400 0.616800
vt 0.730800 0.908800
vt 0.730800 0.550800
vt 0.787900 0.603000
vt 0.817400 0.603000
vt 0.714500 0.908800
vt 0.746100 0.546300
vt 0.787900 0.590100
vt 0.817400 0.590100
vt 0.699300 0.904400
vt 0.758500 0.538000
vt 0.787900 0.579500
vt 0.817400 0.579500
vt 0.686800 0.896000
vt 0.766600 0.526700
vt 0.835800 0.552600
vt 0.865300 0.552600
vt 0.865300 0.563900
vt 0.835800 0.563900
vt 0.678700 0.884700
vt 0.769500 0.513900
vt 0.835800 0.539800
vt 0.865300 0.539800
vt 0.675900 0.871900
vt 0.766600 0.501000
vt 0.835800 0.526900
vt 0.865300 0.526900
vt 0.678700 0.859100
vt 0.758500 0.489800
vt 0.835800 0.515700
vt 0.865300 0.515700
vt 0.686800 0.847800
vt 0.746100 0.481400
vt 0.787900 0.553300
vt 0.817400 0.553300
vt 0.817400 0.563900
vt 0.787900 0.563900
vt 0.699300 0.839400
vt 0.730800 0.476900
vt 0.787900 0.540400
vt 0.817400 0.540400
vt 0.714500 0.835000
vt 0.714500 0.476900
vt 0.787900 0.526600
vt 0.817400 0.526600
vt 0.730800 0.835000
vt 0.699300 0.481400
vt 0.787900 0.513600
vt 0.817400 0.513600
vt 0.746100 0.839400
vt 0.686800 0.489800
vt 0.787900 0.503100
vt 0.817400 0.503100
vt 0.758500 0.847800
vt 0.678700 0.501000
vt 0.865300 0.335400
vt 0.835800 0.335400
vt 0.835800 0.324100
vt 0.865300 0.324100
vt 0.766600 0.859100
vt 0.678700 0.795200
vt 0.675900 0.782400
vt 0.722700 0.782400
vt 0.769500 0.297100
vt 0.740000 0.297100
vt 0.740000 0.284300
vt 0.769500 0.284300
vt 0.766600 0.705700
vt 0.722700 0.692900
vt 0.769500 0.692900
vt 0.686800 0.806500
vt 0.769500 0.308400
vt 0.740000 0.308400
vt 0.758500 0.717000
vt 0.699300 0.814900
vt 0.787900 0.324000
vt 0.817400 0.324000
vt 0.817400 0.334500
vt 0.787900 0.334500
vt 0.746100 0.725400
vt 0.714500 0.819300
vt 0.787900 0.311000
vt 0.817400 0.311000
vt 0.730800 0.729800
vt 0.730800 0.819300
vt 0.787900 0.297200
vt 0.817400 0.297200
vt 0.714500 0.729800
vt 0.746100 0.814900
vt 0.787900 0.284300
vt 0.817400 0.284300
vt 0.699300 0.725400
vt 0.758500 0.806500
vt 0.787900 0.273700
vt 0.817400 0.273700
vt 0.686800 0.717000
vt 0.766600 0.795200
vt 0.835800 0.297200
vt 0.865300 0.297200
vt 0.865300 0.308400
vt 0.835800 0.308400
vt 0.678700 0.705700
vt 0.769500 0.782400
vt 0.835800 0.284300
vt 0.865300 0.284300
vt 0.675900 0.692900
vt 0.766600 0.769600
vt 0.835800 0.271500
vt 0.865300 0.271500
vt 0.678700 0.680100
vt 0.758500 0.758300
vt 0.835800 0.260200
vt 0.865300 0.260200
vt 0.686800 0.668800
vt 0.746100 0.749900
vt 0.787900 0.476900
vt 0.817400 0.476900
vt 0.817400 0.487400
vt 0.787900 0.487400
vt 0.699300 0.660400
vt 0.730800 0.745500
vt 0.787900 0.463900
vt 0.817400 0.463900
vt 0.714500 0.656000
vt 0.714500 0.745500
vt 0.787900 0.450100
vt 0.817400 0.450100
vt 0.730800 0.656000
vt 0.699300 0.749900
vt 0.787900 0.437200
vt 0.817400 0.437200
vt 0.746100 0.660400
vt 0.686800 0.758300
vt 0.787900 0.426600
vt 0.817400 0.426600
vt 0.758500 0.668800
vt 0.678700 0.769600
vt 0.769500 0.271500
vt 0.740000 0.271500
vt 0.740000 0.260200
vt 0.769500 0.260200
vt 0.766600 0.680100
f 1/1/1 2/2/1 3/3/1
f 3/3/1 4/4/1 1/1/1
f 5/5/2 6/6/2 7/7/2
f 7/7/2 8/8/2 5/5/2
f 9/9/3 10/10/3 7/11/3
f 7/11/3 6/12/3 9/9/3
f 11/13/4 4/14/4 3/15/4
f 3/15/4 12/16/4 11/13/4
f 2/17/5 13/18/5 12/19/5
f 12/19/5 3/20/5 2/17/5
f 6/12/6 5/21/6 14/22/6
f 14/22/6 9/9/6 6/12/6
f 8/8/2 13/23/2 15/24/2
f 15/24/2 5/5/2 8/8/2
f 16/25/4 10/26/4 9/27/4
f 9/27/4 14/28/4 16/25/4
f 8/29/7 7/30/7 10/31/7
f 10/31/7 16/32/7 8/29/7
f 5/21/6 15/33/6 11/34/6
f 11/34/6 14/22/6 5/21/6
f 12/16/4 16/25/4 14/28/4
f 14/28/4 11/13/4 12/16/4
f 17/35/8 18/36/8 19/37/8
f 19/37/8 20/38/8 17/35/8
f 13/23/2 2/39/2 1/40/2
f 1/40/2 15/24/2 13/23/2
f 15/33/6 1/41/6 4/42/6
f 4/42/6 11/34/6 15/33/6
f 13/18/9 17/35/9 20/38/9
f 20/38/9 12/19/9 13/18/9
f 8/8/2 18/43/2 17/44/2
f 17/44/2 13/23/2 8/8/2
f 16/32/10 19/37/10 18/36/10
f 18/36/10 8/29/10 16/32/10
f 12/16/4 20/45/4 19/46/4
f 19/46/4 16/25/4 12/16/4
f 21/47/4 22/48/4 23/49/4
f 21/50/11 24/51/11 25/52/11
f 25/52/11 22/53/11 21/50/11
f 24/54/2 26/55/2 25/56/2
f 27/57/4 21/47/4 23/49/4
f 27/58/12 28/59/12 24/51/12
f 24/51/12 21/50/12 27/58/12
f 28/60/2 26/55/2 24/54/2
f 29/61/4 27/57/4 23/49/4
f 29/62/13 30/63/13 28/64/13
f 28/64/13 27/65/13 29/62/13
f 30/66/2 26/55/2 28/60/2
f 31/67/4 29/61/4 23/49/4
f 31/68/14 32/69/14 30/63/14
f 30/63/14 29/62/14 31/68/14
f 32/70/2 26/55/2 30/66/2
f 33/71/4 31/67/4 23/49/4
f 33/72/8 34/73/8 32/69/8
f 32/69/8 31/68/8 33/72/8
f 34/74/2 26/55/2 32/70/2
f 35/75/4 33/71/4 23/49/4
f 35/76/15 36/77/15 34/73/15
f 34/73/15 33/72/15 35/76/15
f 36/78/2 26/55/2 34/74/2
f 37/79/4 35/75/4 23/49/4
f 37/80/16 38/81/16 36/77/16
f 36/77/16 35/76/16 37/80/16
f 38/82/2 26/55/2 36/78/2
f 39/83/4 37/79/4 23/49/4
f 39/84/17 40/85/17 38/86/17
f 38/86/17 37/87/17 39/84/17
f 40/88/2 26/55/2 38/82/2
f 41/89/4 39/83/4 23/49/4
f 41/90/18 42/91/18 40/85/18
f 40/85/18 39/84/18 41/90/18
f 42/92/2 26/55/2 40/88/2
f 43/93/4 41/89/4 23/49/4
f 43/94/19 44/95/19 42/91/19
f 42/91/19 41/90/19 43/94/19
f 44/96/2 26/55/2 42/92/2
f 45/97/4 43/93/4 23/49/4
f 45/98/20 46/99/20 44/95/20
f 44/95/20 43/94/20 45/98/20
f 46/100/2 26/55/2 44/96/2
f 47/101/4 45/97/4 23/49/4
f 47/102/21 48/103/21 46/104/21
f 46/104/21 45/105/21 47/102/21
f 48/106/2 26/55/2 46/100/2
f 49/107/4 47/101/4 23/49/4
f 49/108/22 50/109/22 48/103/22
f 48/103/22 47/102/22 49/108/22
f 50/110/2 26/55/2 48/106/2
f 51/111/4 49/107/4 23/49/4
f 51/112/6 52/113/6 50/109/6
f 50/109/6 49/108/6 51/112/6
f 52/114/2 26/55/2 50/110/2
f 53/115/4 51/111/4 23/49/4
f 53/116/23 54/117/23 52/113/23
f 52/113/23 51/112/23 53/116/23
f 54/118/2 26/55/2 52/114/2
f 55/119/4 53/115/4 23/49/4
f 55/120/24 56/121/24 54/117/24
f 54/117/24 53/116/24 55/120/24
f 56/122/2 26/55/2 54/118/2
f 57/123/4 55/119/4 23/49/4
f 57/124/25 58/125/25 56/126/25
f 56/126/25 55/127/25 57/124/25
f 58/128/2 26/55/2 56/122/2
f 22/48/4 57/123/4 23/49/4
f 22/53/26 25/52/26 58/125/26
f 58/125/26 57/124/26 22/53/26
f 25/56/2 26/55/2 58/128/2
f 59/129/4 60/130/4 61/131/4
f 59/132/11 62/133/11 63/134/11
f 63/134/11 60/135/11 59/132/11
f 62/136/2 64/137/2 63/138/2
f 65/139/4 59/129/4 61/131/4
f 65/140/12 66/141/12 62/133/12
f 62/133/12 59/132/12 65/140/12
f 66/142/2 64/137/2 62/136/2
f 67/143/4 65/139/4 61/131/4
f 67/144/13 68/145/13 66/146/13
f 66/146/13 65/147/13 67/144/13
f 68/148/2 64/137/2 66/142/2
f 69/149/4 67/143/4 61/131/4
f 69/150/14 70/151/14 68/145/14
f 68/145/14 67/144/14 69/150/14
f 70/152/2 64/137/2 68/148/2
f 71/153/4 69/149/4 61/131/4
f 71/154/8 72/155/8 70/151/8
f 70/151/8 69/150/8 71/154/8
f 72/156/2 64/137/2 70/152/2
f 73/157/4 71/153/4 61/131/4
f 73/158/15 74/159/15 72/155/15
f 72/155/15 71/154/15 73/158/15
f 74/160/2 64/137/2 72/156/2
f 75/161/4 73/157/4 61/131/4
f 75/162/16 76/163/16 74/159/16
f 74/159/16 73/158/16 75/162/16
f 76/164/2 64/137/2 74/160/2
f 77/165/4 75/161/4 61/131/4
f 77/166/17 78/167/17 76/168/17
f 76/168/17 75/169/17 77/166/17
f 78/170/2 64/137/2 76/164/2
f 79/171/4 77/165/4 61/131/4
f 79/172/18 80/173/18 78/167/18
f 78/167/18 77/166/18 79/172/18
f 80/174/2 64/137/2 78/170/2
f 81/175/4 79/171/4 61/131/4
f 81/176/19 82/177/19 80/173/19
f 80/173/19 79/172/19 81/176/19
f 82/178/2 64/137/2 80/174/2
f 83/179/4 81/175/4 61/131/4
f 83/180/20 84/181/20 82/177/20
f 82/177/20 81/176/20 83/180/20
f 84/182/2 64/137/2 82/178/2
f 85/183/4 83/179/4 61/131/4
f 85/184/21 86/185/21 84/186/21
f 84/186/21 83/187/21 85/184/21
f 86/188/2 64/137/2 84/182/2
f 87/189/4 85/183/4 61/131/4
f 87/190/22 88/191/22 86/185/22
f 86/185/22 85/184/22 87/190/22
f 88/192/2 64/137/2 86/188/2
f 89/193/4 87/189/4 61/131/4
f 89/194/6 90/195/6 88/191/6
f 88/191/6 87/190/6 89/194/6
f 90/196/2 64/137/2 88/192/2
f 91/197/4 89/193/4 61/131/4
f 91/198/23 92/199/23 90/195/23
f 90/195/23 89/194/23 91/198/23
f 92/200/2 64/137/2 90/196/2
f 93/201/4 91/197/4 61/131/4
f 93/202/24 94/203/24 92/199/24
f 92/199/24 91/198/24 93/202/24
f 94/204/2 64/137/2 92/200/2
f 95/205/4 93/201/4 61/131/4
f 95/206/25 96/207/25 94/208/25
f 94/208/25 93/209/25 95/206/25
f 96/210/2 64/137/2 94/204/2
f 60/130/4 95/205/4 61/131/4
f 60/135/26 63/134/26 96/207/26
f 96/207/26 95/206/26 60/135/26
f 63/138/2 64/137/2 96/210/2
f 97/211/4 98/212/4 99/213/4
f 97/214/11 100/215/11 101/216/11
f 101/216/11 98/217/11 97/214/11
f 100/218/2 102/219/2 101/220/2
f 103/221/4 97/211/4 99/213/4
f 103/222/12 104/223/12 100/215/12
f 100/215/12 97/214/12 103/222/12
f 104/224/2 102/219/2 100/218/2
f 105/225/4 103/221/4 99/213/4
f 105/226/13 106/227/13 104/228/13
f 104/228/13 103/229/13 105/226/13
f 106/230/2 102/219/2 104/224/2
f 107/231/4 105/225/4 99/213/4
f 107/232/14 108/233/14 106/227/14
f 106/227/14 105/226/14 107/232/14
f 108/234/2 102/219/2 106/230/2
f 109/235/4 107/231/4 99/213/4
f 109/236/8 110/237/8 108/233/8
f 108/233/8 107/232/8 109/236/8
f 110/238/2 102/219/2 108/234/2
f 111/239/4 109/235/4 99/213/4
f 111/240/15 112/241/15 110/237/15
f 110/237/15 109/236/15 111/240/15
f 112/242/2 102/219/2 110/238/2
f 113/243/4 111/239/4 99/213/4
f 113/244/16 114/245/16 112/241/16
f 112/241/16 111/240/16 113/244/16
f 114/246/2 102/219/2 112/242/2
f 115/247/4 113/243/4 99/213/4
f 115/248/17 116/249/17 114/250/17
f 114/250/17 113/251/17 115/248/17
f 116/252/2 102/219/2 114/246/2
f 117/253/4 115/247/4 99/213/4
f 117/254/18 118/255/18 116/249/18
f 116/249/18 115/248/18 117/254/18
f 118/256/2 102/219/2 116/252/2
f 119/257/4 117/253/4 99/213/4
f 119/258/19 120/259/19 118/255/19
f 118/255/19 117/254/19 119/258/19
f 120/260/2 102/219/2 118/256/2
f 121/261/4 119/257/4 99/213/4
f 121/262/20 122/263/20 120/259/20
f 120/259/20 119/258/20 121/262/20
f 122/264/2 102/219/2 120/260/2
f 123/265/4 121/261/4 99/213/4
f 123/266/21 124/267/21 122/268/21
f 122/268/21 121/269/21 123/266/21
f 124/270/2 102/219/2 122/264/2
f 125/271/4 123/265/4 99/213/4
f 125/272/22 126/273/22 124/267/22
f 124/267/22 123/266/22 125/272/22
f 126/274/2 102/219/2 124/270/2
f 127/275/4 125/271/4 99/213/4
f 127/276/6 128/277/6 126/273/6
f 126/273/6 125/272/6 127/276/6
f 128/278/2 102/219/2 126/274/2
f 129/279/4 127/275/4 99/213/4
f 129/280/23 130/281/23 128/277/23
f 128/277/23 127/276/23 129/280/23
f 130/282/2 102/219/2 128/278/2
f 131/283/4 129/279/4 99/213/4
f 131/284/24 132/285/24 130/281/24
f 130/281/24 129/280/24 131/284/24
f 132/286/2 102/219/2 130/282/2
f 133/287/4 131/283/4 99/213/4
f 133/288/25 134/289/25 132/290/25
f 132/290/25 131/291/25 133/288/25
f 134/292/2 102/219/2 132/286/2
f 98/212/4 133/287/4 99/213/4
f 98/217/26 101/216/26 134/289/26
f 134/289/26 133/288/26 98/217/26
f 101/220/2 102/219/2 134/292/2
f 135/293/4 136/294/4 137/295/4
f 135/296/11 138/297/11 139/298/11
f 139/298/11 136/299/11 135/296/11
f 138/300/2 140/301/2 139/302/2
f 141/303/4 135/293/4 137/295/4
f 141/304/12 142/305/12 138/297/12
f 138/297/12 135/296/12 141/304/12
f 142/306/2 140/301/2 138/300/2
f 143/307/4 141/303/4 137/295/4
f 143/308/13 144/309/13 142/310/13
f 142/310/13 141/311/13 143/308/13
f 144/312/2 140/301/2 142/306/2
f 145/313/4 143/307/4 137/295/4
f 145/314/14 146/315/14 144/309/14
f 144/309/14 143/308/14 145/314/14
f 146/316/2 140/301/2 144/312/2
f 147/317/4 145/313/4 137/295/4
f 147/318/8 148/319/8 146/315/8
f 146/315/8 145/314/8 147/318/8
f 148/320/2 140/301/2 146/316/2
f 149/321/4 147/317/4 137/295/4
f 149/322/15 150/323/15 148/319/15
f 148/319/15 147/318/15 149/322/15
f 150/324/2 140/301/2 148/320/2
f 151/325/4 149/321/4 137/295/4
f 151/326/16 152/327/16 150/323/16
f 150/323/16 149/322/16 151/326/16
f 152/328/2 140/301/2 150/324/2
f 153/329/4 151/325/4 137/295/4
f 153/330/17 154/331/17 152/332/17
f 152/332/17 151/333/17 153/330/17
f 154/334/2 140/301/2 152/328/2
f 155/335/4 153/329/4 137/295/4
f 155/336/18 156/337/18 154/331/18
f 154/331/18 153/330/18 155/336/18
f 156/338/2 140/301/2 154/334/2
f 157/339/4 155/335/4 137/295/4
f 157/340/19 158/341/19 156/337/19
f 156/337/19 155/336/19 157/340/19
f 158/342/2 140/301/2 156/338/2
f 159/343/4 157/339/4 137/295/4
f 159/344/20 160/345/20 158/341/20
f 158/341/20 157/340/20 159/344/20
f 160/346/2 140/301/2 158/342/2
f 161/347/4 159/343/4 137/295/4
f 161/348/21 162/349/21 160/350/21
f 160/350/21 159/351/21 161/348/21
f 162/352/2 140/301/2 160/346/2
f 163/353/4 161/347/4 137/295/4
f 163/354/22 164/355/22 162/349/22
f 162/349/22 161/348/22 163/354/22
f 164/356/2 140/301/2 162/352/2
f 165/357/4 163/353/4 137/295/4
f 165/358/6 166/359/6 164/355/6
f 164/355/6 163/354/6 165/358/6
f 166/360/2 140/301/2 164/356/2
f 167/361/4 165/357/4 137/295/4
f 167/362/23 168/363/23 166/359/23
f 166/359/23 165/358/23 167/362/23
f 168/364/2 140/301/2 166/360/2
f 169/365/4 167/361/4 137/295/4
f 169/366/24 170/367/24 168/363/24
f 168/363/24 167/362/24 169/366/24
f 170/368/2 140/301/2 168/364/2
f 171/369/4 169/365/4 137/295/4
f 171/370/25 172/371/25 170/372/25
f 170/372/25 169/373/25 171/370/25
f 172/374/2 140/301/2 170/368/2
f 136/294/4 171/369/4 137/295/4
f 136/299/26 139/298/26 172/371/26
f 172/371/26 171/370/26 136/299/26
f 139/302/2 140/301/2 172/374/2
