#
#
#

mtllib car2.mtl


#
# CAR_02 메시
#
g CAR_02 메시


#
# CAR_02 메시_CAR_01
#
usemtl CAR_02 메시_CAR_01

v 1.185200 0.301900 2.565000
v 1.185200 1.221600 2.709900
v -1.185200 1.221600 2.709900
v -1.185200 0.301900 2.565000
v 1.185200 2.297900 2.024400
v -1.185200 2.297900 2.024400
v 1.185200 0.301900 -0.205600
v 1.185200 0.680300 -0.205600
v 1.185200 0.301900 -1.039300
v 1.185200 0.680300 -1.039300
v 1.185200 0.301900 -2.969500
v 1.185200 0.690200 -2.969500
v 1.185200 2.305500 -0.205600
v 1.185200 1.324800 -1.039300
v 1.185200 0.790400 -2.969500
v -1.185200 0.301900 -2.969500
v -1.185200 0.690200 -2.969500
v -1.185200 0.790400 -2.969500
v -1.185200 0.301900 -1.039300
v -1.185200 0.680300 -1.039300
v -1.185200 0.301900 -0.205600
v -1.185200 0.680300 -0.205600
v -1.185200 1.324800 -1.039300
v -1.185200 2.305500 -0.205600
v 1.070300 0.419700 -2.284300
v 1.070300 0.311500 -2.304500
v 1.070300 0.311500 -1.969700
v 1.259800 0.419700 -2.284300
v 1.259800 0.311500 -2.304500
v 1.259800 0.311500 -1.969700
v 1.070300 0.514900 -2.226200
v 1.259800 0.514900 -2.226200
v 1.070300 0.585500 -2.137100
v 1.259800 0.585500 -2.137100
v 1.070300 0.623100 -2.027800
v 1.259800 0.623100 -2.027800
v 1.070300 0.623100 -1.911600
v 1.259800 0.623100 -1.911600
v 1.070300 0.585500 -1.802300
v 1.259800 0.585500 -1.802300
v 1.070300 0.514900 -1.713300
v 1.259800 0.514900 -1.713300
v 1.070300 0.419700 -1.655100
v 1.259800 0.419700 -1.655100
v 1.070300 0.311500 -1.635000
v 1.259800 0.311500 -1.635000
v 1.070300 0.203300 -1.655100
v 1.259800 0.203300 -1.655100
v 1.070300 0.108200 -1.713300
v 1.259800 0.108200 -1.713300
v 1.070300 0.037600 -1.802300
v 1.259800 0.037600 -1.802300
v 1.070300 0.000000 -1.911600
v 1.259800 0.000000 -1.911600
v 1.070300 0.000000 -2.027800
v 1.259800 0.000000 -2.027800
v 1.070300 0.037600 -2.137100
v 1.259800 0.037600 -2.137100
v 1.070300 0.108200 -2.226200
v 1.259800 0.108200 -2.226200
v 1.070300 0.203300 -2.284300
v 1.259800 0.203300 -2.284300
v -1.258500 0.419700 -2.284300
v -1.258500 0.311500 -2.304500
v -1.258500 0.311500 -1.969700
v -1.069000 0.419700 -2.284300
v -1.069000 0.311500 -2.304500
v -1.069000 0.311500 -1.969700
v -1.258500 0.514900 -2.226200
v -1.069000 0.514900 -2.226200
v -1.258500 0.585500 -2.137100
v -1.069000 0.585500 -2.137100
v -1.258500 0.623100 -2.027800
v -1.069000 0.623100 -2.027800
v -1.258500 0.623100 -1.911600
v -1.069000 0.623100 -1.911600
v -1.258500 0.585500 -1.802300
v -1.069000 0.585500 -1.802300
v -1.258500 0.514900 -1.713300
v -1.069000 0.514900 -1.713300
v -1.258500 0.419700 -1.655100
v -1.069000 0.419700 -1.655100
v -1.258500 0.311500 -1.635000
v -1.069000 0.311500 -1.635000
v -1.258500 0.203300 -1.655100
v -1.069000 0.203300 -1.655100
v -1.258500 0.108200 -1.713300
v -1.069000 0.108200 -1.713300
v -1.258500 0.037600 -1.802300
v -1.069000 0.037600 -1.802300
v -1.258500 0.000000 -1.911600
v -1.069000 0.000000 -1.911600
v -1.258500 0.000000 -2.027800
v -1.069000 0.000000 -2.027800
v -1.258500 0.037600 -2.137100
v -1.069000 0.037600 -2.137100
v -1.258500 0.108200 -2.226200
v -1.069000 0.108200 -2.226200
v -1.258500 0.203300 -2.284300
v -1.069000 0.203300 -2.284300
v 1.070300 0.419700 1.478600
v 1.070300 0.311500 1.458400
v 1.070300 0.311500 1.793200
v 1.259800 0.419700 1.478600
v 1.259800 0.311500 1.458400
v 1.259800 0.311500 1.793200
v 1.070300 0.514900 1.536700
v 1.259800 0.514900 1.536700
v 1.070300 0.585500 1.625800
v 1.259800 0.585500 1.625800
v 1.070300 0.623100 1.735000
v 1.259800 0.623100 1.735000
v 1.070300 0.623100 1.851300
v 1.259800 0.623100 1.851300
v 1.070300 0.585500 1.960500
v 1.259800 0.585500 1.960500
v 1.070300 0.514900 2.049600
v 1.259800 0.514900 2.049600
v 1.070300 0.419700 2.107700
v 1.259800 0.419700 2.107700
v 1.070300 0.311500 2.127900
v 1.259800 0.311500 2.127900
v 1.070300 0.203300 2.107700
v 1.259800 0.203300 2.107700
v 1.070300 0.108200 2.049600
v 1.259800 0.108200 2.049600
v 1.070300 0.037600 1.960500
v 1.259800 0.037600 1.960500
v 1.070300 0.000000 1.851300
v 1.259800 0.000000 1.851300
v 1.070300 0.000000 1.735000
v 1.259800 0.000000 1.735000
v 1.070300 0.037600 1.625800
v 1.259800 0.037600 1.625800
v 1.070300 0.108200 1.536700
v 1.259800 0.108200 1.536700
v 1.070300 0.203300 1.478600
v 1.259800 0.203300 1.478600
v -1.258500 0.419700 1.478600
v -1.258500 0.311500 1.458400
v -1.258500 0.311500 1.793200
v -1.069000 0.419700 1.478600
v -1.069000 0.311500 1.458400
v -1.069000 0.311500 1.793200
v -1.258500 0.514900 1.536700
v -1.069000 0.514900 1.536700
v -1.258500 0.585500 1.625800
v -1.069000 0.585500 1.625800
v -1.258500 0.623100 1.735000
v -1.069000 0.623100 1.735000
v -1.258500 0.623100 1.851300
v -1.069000 0.623100 1.851300
v -1.258500 0.585500 1.960500
v -1.069000 0.585500 1.960500
v -1.258500 0.514900 2.049600
v -1.069000 0.514900 2.049600
v -1.258500 0.419700 2.107700
v -1.069000 0.419700 2.107700
v -1.258500 0.311500 2.127900
v -1.069000 0.311500 2.127900
v -1.258500 0.203300 2.107700
v -1.069000 0.203300 2.107700
v -1.258500 0.108200 2.049600
v -1.069000 0.108200 2.049600
v -1.258500 0.037600 1.960500
v -1.069000 0.037600 1.960500
v -1.258500 0.000000 1.851300
v -1.069000 0.000000 1.851300
v -1.258500 0.000000 1.735000
v -1.069000 0.000000 1.735000
v -1.258500 0.037600 1.625800
v -1.069000 0.037600 1.625800
v -1.258500 0.108200 1.536700
v -1.069000 0.108200 1.536700
v -1.258500 0.203300 1.478600
v -1.069000 0.203300 1.478600
vn 0.000000 -0.155701 0.987804
vn 0.000000 0.537180 0.843468
vn 1.000000 0.000000 -0.000000
vn -0.000000 0.000000 -1.000000
vn -1.000000 0.000000 0.000000
vn 0.000000 0.999994 0.003400
vn -0.000000 0.647698 -0.761897
vn -0.000000 0.963748 -0.266813
vn 0.000000 -1.000000 -0.000000
vn -0.000000 0.183407 -0.983037
vn -0.000000 0.521288 -0.853381
vn -0.000000 0.783545 -0.621335
vn -0.000000 0.945610 -0.325303
vn 0.000000 1.000000 0.000000
vn 0.000000 0.945610 0.325303
vn 0.000000 0.783545 0.621335
vn 0.000000 0.521288 0.853381
vn 0.000000 0.183407 0.983037
vn 0.000000 -0.183407 0.983037
vn 0.000000 -0.521288 0.853381
vn 0.000000 -0.783545 0.621335
vn 0.000000 -0.945610 0.325303
vn -0.000000 -0.945610 -0.325303
vn -0.000000 -0.783545 -0.621335
vn -0.000000 -0.521288 -0.853381
vn -0.000000 -0.183407 -0.983037
vt 0.929500 0.722200
vt 0.821500 0.722200
vt 0.821500 0.469000
vt 0.929500 0.469000
vt 0.673500 0.722200
vt 0.673500 0.469000
vt 0.371100 0.238600
vt 0.371100 0.279000
vt 0.009500 0.336800
vt 0.027500 0.238600
vt 0.474500 0.238600
vt 0.474500 0.279000
vt 0.713900 0.238600
vt 0.713900 0.280100
vt 0.371100 0.452600
vt 0.094600 0.451800
vt 0.474500 0.347900
vt 0.713900 0.290800
vt 0.715000 0.738600
vt 0.763200 0.738600
vt 0.763200 0.991800
vt 0.715000 0.991800
vt 0.775600 0.738600
vt 0.775600 0.991800
vt 0.248900 0.008200
vt 0.248900 0.048600
vt 0.009500 0.049700
vt 0.009500 0.008200
vt 0.352300 0.008200
vt 0.352300 0.048600
vt 0.696000 0.008200
vt 0.713900 0.106400
vt 0.248900 0.117500
vt 0.009500 0.060400
vt 0.352300 0.222200
vt 0.628900 0.221400
vt 0.654400 0.722200
vt 0.397300 0.722200
vt 0.397300 0.469000
vt 0.654400 0.469000
vt 0.256600 0.722200
vt 0.256600 0.469000
vt 0.009500 0.722200
vt 0.009500 0.469000
vt 0.696000 0.991800
vt 0.456600 0.991800
vt 0.456600 0.738600
vt 0.696000 0.738600
vt 0.353200 0.991800
vt 0.353200 0.738600
vt 0.009500 0.991800
vt 0.009500 0.738600
vt 0.837600 0.366400
vt 0.835100 0.354900
vt 0.876600 0.354900
vt 0.941500 0.404500
vt 0.941500 0.424800
vt 0.928700 0.424800
vt 0.928700 0.404500
vt 0.875200 0.804200
vt 0.836200 0.792600
vt 0.877700 0.792600
vt 0.844800 0.376600
vt 0.951800 0.404500
vt 0.951800 0.424800
vt 0.868000 0.814300
vt 0.855900 0.384100
vt 0.949500 0.321600
vt 0.949500 0.341800
vt 0.937200 0.341800
vt 0.937200 0.321600
vt 0.856900 0.821900
vt 0.869400 0.388100
vt 0.963700 0.321600
vt 0.963700 0.341800
vt 0.843400 0.825900
vt 0.883800 0.388100
vt 0.977900 0.321600
vt 0.977900 0.341800
vt 0.829000 0.825900
vt 0.897400 0.384100
vt 0.990500 0.321600
vt 0.990500 0.341800
vt 0.815400 0.821900
vt 0.908400 0.376600
vt 0.743600 0.202000
vt 0.743600 0.222200
vt 0.733000 0.222200
vt 0.733000 0.202000
vt 0.804400 0.814300
vt 0.915600 0.366400
vt 0.756500 0.202000
vt 0.756500 0.222200
vt 0.797200 0.804200
vt 0.918100 0.354900
vt 0.770200 0.202000
vt 0.770200 0.222200
vt 0.794700 0.792600
vt 0.915600 0.343300
vt 0.782900 0.202000
vt 0.782900 0.222200
vt 0.797200 0.781000
vt 0.908400 0.333100
vt 0.793200 0.202000
vt 0.793200 0.222200
vt 0.804400 0.770900
vt 0.897400 0.325600
vt 0.817700 0.165300
vt 0.817700 0.185600
vt 0.805300 0.185600
vt 0.805300 0.165300
vt 0.815400 0.763300
vt 0.883800 0.321600
vt 0.831800 0.165300
vt 0.831800 0.185600
vt 0.829000 0.759300
vt 0.869400 0.321600
vt 0.846000 0.165300
vt 0.846000 0.185600
vt 0.843400 0.759300
vt 0.855900 0.325600
vt 0.858600 0.165300
vt 0.858600 0.185600
vt 0.856900 0.763300
vt 0.844800 0.333100
vt 0.902200 0.404500
vt 0.902200 0.424800
vt 0.891600 0.424800
vt 0.891600 0.404500
vt 0.868000 0.770900
vt 0.837600 0.343300
vt 0.915100 0.404500
vt 0.915100 0.424800
vt 0.875200 0.781000
vt 0.837600 0.283500
vt 0.835100 0.271900
vt 0.876600 0.271900
vt 0.862200 0.202000
vt 0.862200 0.222200
vt 0.849400 0.222200
vt 0.849400 0.202000
vt 0.977300 0.970100
vt 0.938300 0.958500
vt 0.979800 0.958500
vt 0.844800 0.293600
vt 0.872500 0.202000
vt 0.872500 0.222200
vt 0.970100 0.980200
vt 0.855900 0.301200
vt 0.949500 0.358200
vt 0.949500 0.378500
vt 0.937200 0.378500
vt 0.937200 0.358200
vt 0.959000 0.987800
vt 0.869400 0.305200
vt 0.963700 0.358200
vt 0.963700 0.378500
vt 0.945500 0.991800
vt 0.883800 0.305200
vt 0.977900 0.358200
vt 0.977900 0.378500
vt 0.931100 0.991800
vt 0.897400 0.301200
vt 0.990500 0.358200
vt 0.990500 0.378500
vt 0.917500 0.987800
vt 0.908400 0.293600
vt 0.743600 0.404500
vt 0.743600 0.424800
vt 0.733000 0.424800
vt 0.733000 0.404500
vt 0.906500 0.980200
vt 0.915600 0.283500
vt 0.756500 0.404500
vt 0.756500 0.424800
vt 0.899300 0.970100
vt 0.918100 0.271900
vt 0.770200 0.404500
vt 0.770200 0.424800
vt 0.896700 0.958500
vt 0.915600 0.260300
vt 0.782900 0.404500
vt 0.782900 0.424800
vt 0.899300 0.947000
vt 0.908400 0.250200
vt 0.793200 0.404500
vt 0.793200 0.424800
vt 0.906500 0.936800
vt 0.897400 0.242600
vt 0.909100 0.759300
vt 0.909100 0.779600
vt 0.896700 0.779600
vt 0.896700 0.759300
vt 0.917500 0.929300
vt 0.883800 0.238600
vt 0.923200 0.759300
vt 0.923200 0.779600
vt 0.931100 0.925200
vt 0.869400 0.238600
vt 0.937500 0.759300
vt 0.937500 0.779600
vt 0.945500 0.925200
vt 0.855900 0.242600
vt 0.950000 0.759300
vt 0.950000 0.779600
vt 0.959000 0.929300
vt 0.844800 0.250200
vt 0.822900 0.202000
vt 0.822900 0.222200
vt 0.812300 0.222200
vt 0.812300 0.202000
vt 0.970100 0.936800
vt 0.837600 0.260300
vt 0.835800 0.202000
vt 0.835800 0.222200
vt 0.977300 0.947000
vt 0.797200 0.970100
vt 0.794700 0.958500
vt 0.836200 0.958500
vt 0.946700 0.888600
vt 0.946700 0.908800
vt 0.933900 0.908800
vt 0.933900 0.888600
vt 0.875200 0.887100
vt 0.836200 0.875600
vt 0.877700 0.875600
vt 0.804400 0.980200
vt 0.957000 0.888600
vt 0.957000 0.908800
vt 0.868000 0.897300
vt 0.815400 0.987800
vt 0.949500 0.284900
vt 0.949500 0.305200
vt 0.937200 0.305200
vt 0.937200 0.284900
vt 0.856900 0.904800
vt 0.829000 0.991800
vt 0.963700 0.284900
vt 0.963700 0.305200
vt 0.843400 0.908800
vt 0.843400 0.991800
vt 0.977900 0.284900
vt 0.977900 0.305200
vt 0.829000 0.908800
vt 0.856900 0.987800
vt 0.990500 0.284900
vt 0.990500 0.305200
vt 0.815400 0.904800
vt 0.868000 0.980200
vt 0.907300 0.851900
vt 0.907300 0.872200
vt 0.896700 0.872200
vt 0.896700 0.851900
vt 0.804400 0.897300
vt 0.875200 0.970100
vt 0.920300 0.851900
vt 0.920300 0.872200
vt 0.797200 0.887100
vt 0.877700 0.958500
vt 0.933900 0.851900
vt 0.933900 0.872200
vt 0.794700 0.875600
vt 0.875200 0.947000
vt 0.946700 0.851900
vt 0.946700 0.872200
vt 0.797200 0.864000
vt 0.868000 0.936800
vt 0.957000 0.851900
vt 0.957000 0.872200
vt 0.804400 0.853800
vt 0.856900 0.929300
vt 0.890000 0.165300
vt 0.890000 0.185600
vt 0.877700 0.185600
vt 0.877700 0.165300
vt 0.815400 0.846300
vt 0.843400 0.925200
vt 0.904200 0.165300
vt 0.904200 0.185600
vt 0.829000 0.842300
vt 0.829000 0.925200
vt 0.918400 0.165300
vt 0.918400 0.185600
vt 0.843400 0.842300
vt 0.815400 0.929300
vt 0.931000 0.165300
vt 0.931000 0.185600
vt 0.856900 0.846300
vt 0.804400 0.936800
vt 0.907300 0.888600
vt 0.907300 0.908800
vt 0.896700 0.908800
vt 0.896700 0.888600
vt 0.868000 0.853800
vt 0.797200 0.947000
vt 0.920300 0.888600
vt 0.920300 0.908800
vt 0.875200 0.864000
vt 0.735500 0.366400
vt 0.733000 0.354900
vt 0.774500 0.354900
vt 0.941500 0.202000
vt 0.941500 0.222200
vt 0.928700 0.222200
vt 0.928700 0.202000
vt 0.813500 0.283500
vt 0.774500 0.271900
vt 0.816000 0.271900
vt 0.742700 0.376600
vt 0.951800 0.202000
vt 0.951800 0.222200
vt 0.806300 0.293600
vt 0.753800 0.384100
vt 0.745400 0.165300
vt 0.745400 0.185600
vt 0.733000 0.185600
vt 0.733000 0.165300
vt 0.795300 0.301200
vt 0.767300 0.388100
vt 0.759500 0.165300
vt 0.759500 0.185600
vt 0.781700 0.305200
vt 0.781700 0.388100
vt 0.773700 0.165300
vt 0.773700 0.185600
vt 0.767300 0.305200
vt 0.795300 0.384100
vt 0.786300 0.165300
vt 0.786300 0.185600
vt 0.753800 0.301200
vt 0.806300 0.376600
vt 0.822900 0.404500
vt 0.822900 0.424800
vt 0.812300 0.424800
vt 0.812300 0.404500
vt 0.742700 0.293600
vt 0.813500 0.366400
vt 0.835800 0.404500
vt 0.835800 0.424800
vt 0.735500 0.283500
vt 0.816000 0.354900
vt 0.849400 0.404500
vt 0.849400 0.424800
vt 0.733000 0.271900
vt 0.813500 0.343300
vt 0.862200 0.404500
vt 0.862200 0.424800
vt 0.735500 0.260300
vt 0.806300 0.333100
vt 0.872500 0.404500
vt 0.872500 0.424800
vt 0.742700 0.250200
vt 0.795300 0.325600
vt 0.909100 0.796000
vt 0.909100 0.816200
vt 0.896700 0.816200
vt 0.896700 0.796000
vt 0.753800 0.242600
vt 0.781700 0.321600
vt 0.923200 0.796000
vt 0.923200 0.816200
vt 0.767300 0.238600
vt 0.767300 0.321600
vt 0.937500 0.796000
vt 0.937500 0.816200
vt 0.781700 0.238600
vt 0.753800 0.325600
vt 0.950000 0.796000
vt 0.950000 0.816200
vt 0.795300 0.242600
vt 0.742700 0.333100
vt 0.902200 0.202000
vt 0.902200 0.222200
vt 0.891600 0.222200
vt 0.891600 0.202000
vt 0.806300 0.250200
vt 0.735500 0.343300
vt 0.915100 0.202000
vt 0.915100 0.222200
vt 0.813500 0.260300
f 1/1/1 2/2/1 3/3/1
f 3/3/1 4/4/1 1/1/1
f 2/2/2 5/5/2 6/6/2
f 6/6/2 3/3/2 2/2/2
f 7/7/3 8/8/3 2/9/3
f 2/9/3 1/10/3 7/7/3
f 9/11/3 10/12/3 8/8/3
f 8/8/3 7/7/3 9/11/3
f 11/13/3 12/14/3 10/12/3
f 10/12/3 9/11/3 11/13/3
f 8/8/3 13/15/3 5/16/3
f 5/16/3 2/9/3 8/8/3
f 10/12/3 14/17/3 13/15/3
f 13/15/3 8/8/3 10/12/3
f 12/14/3 15/18/3 14/17/3
f 14/17/3 10/12/3 12/14/3
f 16/19/4 17/20/4 12/21/4
f 12/21/4 11/22/4 16/19/4
f 17/20/4 18/23/4 15/24/4
f 15/24/4 12/21/4 17/20/4
f 19/25/5 20/26/5 17/27/5
f 17/27/5 16/28/5 19/25/5
f 21/29/5 22/30/5 20/26/5
f 20/26/5 19/25/5 21/29/5
f 4/31/5 3/32/5 22/30/5
f 22/30/5 21/29/5 4/31/5
f 20/26/5 23/33/5 18/34/5
f 18/34/5 17/27/5 20/26/5
f 22/30/5 24/35/5 23/33/5
f 23/33/5 20/26/5 22/30/5
f 3/32/5 6/36/5 24/35/5
f 24/35/5 22/30/5 3/32/5
f 5/37/6 13/38/6 24/39/6
f 24/39/6 6/40/6 5/37/6
f 13/38/7 14/41/7 23/42/7
f 23/42/7 24/39/7 13/38/7
f 14/41/8 15/43/8 18/44/8
f 18/44/8 23/42/8 14/41/8
f 11/45/9 9/46/9 19/47/9
f 19/47/9 16/48/9 11/45/9
f 9/46/9 7/49/9 21/50/9
f 21/50/9 19/47/9 9/46/9
f 7/49/9 1/51/9 4/52/9
f 4/52/9 21/50/9 7/49/9
f 25/53/5 26/54/5 27/55/5
f 25/56/10 28/57/10 29/58/10
f 29/58/10 26/59/10 25/56/10
f 28/60/3 30/61/3 29/62/3
f 31/63/5 25/53/5 27/55/5
f 31/64/11 32/65/11 28/57/11
f 28/57/11 25/56/11 31/64/11
f 32/66/3 30/61/3 28/60/3
f 33/67/5 31/63/5 27/55/5
f 33/68/12 34/69/12 32/70/12
f 32/70/12 31/71/12 33/68/12
f 34/72/3 30/61/3 32/66/3
f 35/73/5 33/67/5 27/55/5
f 35/74/13 36/75/13 34/69/13
f 34/69/13 33/68/13 35/74/13
f 36/76/3 30/61/3 34/72/3
f 37/77/5 35/73/5 27/55/5
f 37/78/14 38/79/14 36/75/14
f 36/75/14 35/74/14 37/78/14
f 38/80/3 30/61/3 36/76/3
f 39/81/5 37/77/5 27/55/5
f 39/82/15 40/83/15 38/79/15
f 38/79/15 37/78/15 39/82/15
f 40/84/3 30/61/3 38/80/3
f 41/85/5 39/81/5 27/55/5
f 41/86/16 42/87/16 40/88/16
f 40/88/16 39/89/16 41/86/16
f 42/90/3 30/61/3 40/84/3
f 43/91/5 41/85/5 27/55/5
f 43/92/17 44/93/17 42/87/17
f 42/87/17 41/86/17 43/92/17
f 44/94/3 30/61/3 42/90/3
f 45/95/5 43/91/5 27/55/5
f 45/96/18 46/97/18 44/93/18
f 44/93/18 43/92/18 45/96/18
f 46/98/3 30/61/3 44/94/3
f 47/99/5 45/95/5 27/55/5
f 47/100/19 48/101/19 46/97/19
f 46/97/19 45/96/19 47/100/19
f 48/102/3 30/61/3 46/98/3
f 49/103/5 47/99/5 27/55/5
f 49/104/20 50/105/20 48/101/20
f 48/101/20 47/100/20 49/104/20
f 50/106/3 30/61/3 48/102/3
f 51/107/5 49/103/5 27/55/5
f 51/108/21 52/109/21 50/110/21
f 50/110/21 49/111/21 51/108/21
f 52/112/3 30/61/3 50/106/3
f 53/113/5 51/107/5 27/55/5
f 53/114/22 54/115/22 52/109/22
f 52/109/22 51/108/22 53/114/22
f 54/116/3 30/61/3 52/112/3
f 55/117/5 53/113/5 27/55/5
f 55/118/9 56/119/9 54/115/9
f 54/115/9 53/114/9 55/118/9
f 56/120/3 30/61/3 54/116/3
f 57/121/5 55/117/5 27/55/5
f 57/122/23 58/123/23 56/119/23
f 56/119/23 55/118/23 57/122/23
f 58/124/3 30/61/3 56/120/3
f 59/125/5 57/121/5 27/55/5
f 59/126/24 60/127/24 58/128/24
f 58/128/24 57/129/24 59/126/24
f 60/130/3 30/61/3 58/124/3
f 61/131/5 59/125/5 27/55/5
f 61/132/25 62/133/25 60/127/25
f 60/127/25 59/126/25 61/132/25
f 62/134/3 30/61/3 60/130/3
f 26/54/5 61/131/5 27/55/5
f 26/59/26 29/58/26 62/133/26
f 62/133/26 61/132/26 26/59/26
f 29/62/3 30/61/3 62/134/3
f 63/135/5 64/136/5 65/137/5
f 63/138/10 66/139/10 67/140/10
f 67/140/10 64/141/10 63/138/10
f 66/142/3 68/143/3 67/144/3
f 69/145/5 63/135/5 65/137/5
f 69/146/11 70/147/11 66/139/11
f 66/139/11 63/138/11 69/146/11
f 70/148/3 68/143/3 66/142/3
f 71/149/5 69/145/5 65/137/5
f 71/150/12 72/151/12 70/152/12
f 70/152/12 69/153/12 71/150/12
f 72/154/3 68/143/3 70/148/3
f 73/155/5 71/149/5 65/137/5
f 73/156/13 74/157/13 72/151/13
f 72/151/13 71/150/13 73/156/13
f 74/158/3 68/143/3 72/154/3
f 75/159/5 73/155/5 65/137/5
f 75/160/14 76/161/14 74/157/14
f 74/157/14 73/156/14 75/160/14
f 76/162/3 68/143/3 74/158/3
f 77/163/5 75/159/5 65/137/5
f 77/164/15 78/165/15 76/161/15
f 76/161/15 75/160/15 77/164/15
f 78/166/3 68/143/3 76/162/3
f 79/167/5 77/163/5 65/137/5
f 79/168/16 80/169/16 78/170/16
f 78/170/16 77/171/16 79/168/16
f 80/172/3 68/143/3 78/166/3
f 81/173/5 79/167/5 65/137/5
f 81/174/17 82/175/17 80/169/17
f 80/169/17 79/168/17 81/174/17
f 82/176/3 68/143/3 80/172/3
f 83/177/5 81/173/5 65/137/5
f 83/178/18 84/179/18 82/175/18
f 82/175/18 81/174/18 83/178/18
f 84/180/3 68/143/3 82/176/3
f 85/181/5 83/177/5 65/137/5
f 85/182/19 86/183/19 84/179/19
f 84/179/19 83/178/19 85/182/19
f 86/184/3 68/143/3 84/180/3
f 87/185/5 85/181/5 65/137/5
f 87/186/20 88/187/20 86/183/20
f 86/183/20 85/182/20 87/186/20
f 88/188/3 68/143/3 86/184/3
f 89/189/5 87/185/5 65/137/5
f 89/190/21 90/191/21 88/192/21
f 88/192/21 87/193/21 89/190/21
f 90/194/3 68/143/3 88/188/3
f 91/195/5 89/189/5 65/137/5
f 91/196/22 92/197/22 90/191/22
f 90/191/22 89/190/22 91/196/22
f 92/198/3 68/143/3 90/194/3
f 93/199/5 91/195/5 65/137/5
f 93/200/9 94/201/9 92/197/9
f 92/197/9 91/196/9 93/200/9
f 94/202/3 68/143/3 92/198/3
f 95/203/5 93/199/5 65/137/5
f 95/204/23 96/205/23 94/201/23
f 94/201/23 93/200/23 95/204/23
f 96/206/3 68/143/3 94/202/3
f 97/207/5 95/203/5 65/137/5
f 97/208/24 98/209/24 96/210/24
f 96/210/24 95/211/24 97/208/24
f 98/212/3 68/143/3 96/206/3
f 99/213/5 97/207/5 65/137/5
f 99/214/25 100/215/25 98/209/25
f 98/209/25 97/208/25 99/214/25
f 100/216/3 68/143/3 98/212/3
f 64/136/5 99/213/5 65/137/5
f 64/141/26 67/140/26 100/215/26
f 100/215/26 99/214/26 64/141/26
f 67/144/3 68/143/3 100/216/3
f 101/217/5 102/218/5 103/219/5
f 101/220/10 104/221/10 105/222/10
f 105/222/10 102/223/10 101/220/10
f 104/224/3 106/225/3 105/226/3
f 107/227/5 101/217/5 103/219/5
f 107/228/11 108/229/11 104/221/11
f 104/221/11 101/220/11 107/228/11
f 108/230/3 106/225/3 104/224/3
f 109/231/5 107/227/5 103/219/5
f 109/232/12 110/233/12 108/234/12
f 108/234/12 107/235/12 109/232/12
f 110/236/3 106/225/3 108/230/3
f 111/237/5 109/231/5 103/219/5
f 111/238/13 112/239/13 110/233/13
f 110/233/13 109/232/13 111/238/13
f 112/240/3 106/225/3 110/236/3
f 113/241/5 111/237/5 103/219/5
f 113/242/14 114/243/14 112/239/14
f 112/239/14 111/238/14 113/242/14
f 114/244/3 106/225/3 112/240/3
f 115/245/5 113/241/5 103/219/5
f 115/246/15 116/247/15 114/243/15
f 114/243/15 113/242/15 115/246/15
f 116/248/3 106/225/3 114/244/3
f 117/249/5 115/245/5 103/219/5
f 117/250/16 118/251/16 116/252/16
f 116/252/16 115/253/16 117/250/16
f 118/254/3 106/225/3 116/248/3
f 119/255/5 117/249/5 103/219/5
f 119/256/17 120/257/17 118/251/17
f 118/251/17 117/250/17 119/256/17
f 120/258/3 106/225/3 118/254/3
f 121/259/5 119/255/5 103/219/5
f 121/260/18 122/261/18 120/257/18
f 120/257/18 119/256/18 121/260/18
f 122/262/3 106/225/3 120/258/3
f 123/263/5 121/259/5 103/219/5
f 123/264/19 124/265/19 122/261/19
f 122/261/19 121/260/19 123/264/19
f 124/266/3 106/225/3 122/262/3
f 125/267/5 123/263/5 103/219/5
f 125/268/20 126/269/20 124/265/20
f 124/265/20 123/264/20 125/268/20
f 126/270/3 106/225/3 124/266/3
f 127/271/5 125/267/5 103/219/5
f 127/272/21 128/273/21 126/274/21
f 126/274/21 125/275/21 127/272/21
f 128/276/3 106/225/3 126/270/3
f 129/277/5 127/271/5 103/219/5
f 129/278/22 130/279/22 128/273/22
f 128/273/22 127/272/22 129/278/22
f 130/280/3 106/225/3 128/276/3
f 131/281/5 129/277/5 103/219/5
f 131/282/9 132/283/9 130/279/9
f 130/279/9 129/278/9 131/282/9
f 132/284/3 106/225/3 130/280/3
f 133/285/5 131/281/5 103/219/5
f 133/286/23 134/287/23 132/283/23
f 132/283/23 131/282/23 133/286/23
f 134/288/3 106/225/3 132/284/3
f 135/289/5 133/285/5 103/219/5
f 135/290/24 136/291/24 134/292/24
f 134/292/24 133/293/24 135/290/24
f 136/294/3 106/225/3 134/288/3
f 137/295/5 135/289/5 103/219/5
f 137/296/25 138/297/25 136/291/25
f 136/291/25 135/290/25 137/296/25
f 138/298/3 106/225/3 136/294/3
f 102/218/5 137/295/5 103/219/5
f 102/223/26 105/222/26 138/297/26
f 138/297/26 137/296/26 102/223/26
f 105/226/3 106/225/3 138/298/3
f 139/299/5 140/300/5 141/301/5
f 139/302/10 142/303/10 143/304/10
f 143/304/10 140/305/10 139/302/10
f 142/306/3 144/307/3 143/308/3
f 145/309/5 139/299/5 141/301/5
f 145/310/11 146/311/11 142/303/11
f 142/303/11 139/302/11 145/310/11
f 146/312/3 144/307/3 142/306/3
f 147/313/5 145/309/5 141/301/5
f 147/314/12 148/315/12 146/316/12
f 146/316/12 145/317/12 147/314/12
f 148/318/3 144/307/3 146/312/3
f 149/319/5 147/313/5 141/301/5
f 149/320/13 150/321/13 148/315/13
f 148/315/13 147/314/13 149/320/13
f 150/322/3 144/307/3 148/318/3
f 151/323/5 149/319/5 141/301/5
f 151/324/14 152/325/14 150/321/14
f 150/321/14 149/320/14 151/324/14
f 152/326/3 144/307/3 150/322/3
f 153/327/5 151/323/5 141/301/5
f 153/328/15 154/329/15 152/325/15
f 152/325/15 151/324/15 153/328/15
f 154/330/3 144/307/3 152/326/3
f 155/331/5 153/327/5 141/301/5
f 155/332/16 156/333/16 154/334/16
f 154/334/16 153/335/16 155/332/16
f 156/336/3 144/307/3 154/330/3
f 157/337/5 155/331/5 141/301/5
f 157/338/17 158/339/17 156/333/17
f 156/333/17 155/332/17 157/338/17
f 158/340/3 144/307/3 156/336/3
f 159/341/5 157/337/5 141/301/5
f 159/342/18 160/343/18 158/339/18
f 158/339/18 157/338/18 159/342/18
f 160/344/3 144/307/3 158/340/3
f 161/345/5 159/341/5 141/301/5
f 161/346/19 162/347/19 160/343/19
f 160/343/19 159/342/19 161/346/19
f 162/348/3 144/307/3 160/344/3
f 163/349/5 161/345/5 141/301/5
f 163/350/20 164/351/20 162/347/20
f 162/347/20 161/346/20 163/350/20
f 164/352/3 144/307/3 162/348/3
f 165/353/5 163/349/5 141/301/5
f 165/354/21 166/355/21 164/356/21
f 164/356/21 163/357/21 165/354/21
f 166/358/3 144/307/3 164/352/3
f 167/359/5 165/353/5 141/301/5
f 167/360/22 168/361/22 166/355/22
f 166/355/22 165/354/22 167/360/22
f 168/362/3 144/307/3 166/358/3
f 169/363/5 167/359/5 141/301/5
f 169/364/9 170/365/9 168/361/9
f 168/361/9 167/360/9 169/364/9
f 170/366/3 144/307/3 168/362/3
f 171/367/5 169/363/5 141/301/5
f 171/368/23 172/369/23 170/365/23
f 170/365/23 169/364/23 171/368/23
f 172/370/3 144/307/3 170/366/3
f 173/371/5 171/367/5 141/301/5
f 173/372/24 174/373/24 172/374/24
f 172/374/24 171/375/24 173/372/24
f 174/376/3 144/307/3 172/370/3
f 175/377/5 173/371/5 141/301/5
f 175/378/25 176/379/25 174/373/25
f 174/373/25 173/372/25 175/378/25
f 176/380/3 144/307/3 174/376/3
f 140/300/5 175/377/5 141/301/5
f 140/305/26 143/304/26 176/379/26
f 176/379/26 175/378/26 140/305/26
f 143/308/3 144/307/3 176/380/3
